<?xml version="1.0" encoding="UTF-8" standalone="yes"?>
<svg xmlns="http://www.w3.org/2000/svg" version="1.2" baseProfile="tiny">
  <title>bimi-svg-acousticunion</title>
  <g transform="matrix(1, 0, 0, 1, 38.756069, -135.997559)">
    <path class="fil0 str0" d="M 229.796 157.757 C 328.2 162.912 403.799 246.762 398.651 345.04 C 393.502 443.318 309.556 518.81 211.152 513.655 C 112.747 508.5 37.148 424.65 42.297 326.372 C 47.445 228.094 131.391 152.602 229.796 157.757 L 229.796 157.757 Z" fill="rgb(43, 43, 42)" stroke="rgb(43, 43, 42)" stroke-miterlimit="22.9256" stroke-width="20px"/>
    <path class="fil2" d="M 273.537 288.697 C 279.831 288.697 282.769 284.5 282.769 278.626 L 282.769 266.876 L 277.594 266.876 L 277.594 279.186 C 277.594 282.962 275.776 284.221 273.537 284.221 C 271.02 284.221 269.202 282.962 269.202 279.186 L 269.202 266.876 L 264.026 266.876 L 264.026 278.626 C 264.026 284.5 266.963 288.697 273.537 288.697 Z M 339.138 266.876 L 344.314 266.876 L 344.314 288.278 L 339.138 288.278 L 339.138 266.876 Z M 319.836 288.278 L 325.011 288.278 L 325.011 271.073 L 330.887 271.073 L 330.887 266.876 L 314.101 266.876 L 314.101 271.073 L 319.836 271.073 L 319.836 288.278 Z M 298.155 279.045 C 300.534 280.165 302.212 280.724 302.212 282.543 C 302.212 283.941 300.813 284.5 298.855 284.5 C 296.897 284.5 294.658 284.221 292.14 283.242 L 292.14 287.439 C 292.14 287.439 293.959 288.697 298.855 288.697 C 304.17 288.697 307.527 286.319 307.527 282.403 C 307.527 278.766 304.03 277.088 302.212 276.248 C 299.834 274.989 296.897 274.01 296.897 272.332 C 296.897 269.814 302.352 270.233 306.129 270.933 L 306.129 266.736 C 306.129 266.736 304.17 266.317 300.812 266.317 C 296.477 266.317 291.722 267.856 291.722 272.472 C 291.722 276.248 295.917 278.067 298.155 279.045 Z M 244.023 270.793 C 247.38 270.793 249.759 273.311 249.759 277.508 C 249.759 281.843 247.241 284.221 244.023 284.221 C 240.947 284.221 238.429 281.843 238.429 277.508 C 238.429 273.311 240.666 270.793 244.023 270.793 Z M 244.023 288.697 C 250.318 288.697 255.354 284.361 255.354 277.508 C 255.354 270.373 250.318 266.317 244.023 266.317 C 237.869 266.317 232.834 270.653 232.834 277.508 C 232.834 284.5 237.869 288.697 244.023 288.697 Z M 224.021 288.417 L 224.021 284.221 C 219.406 284.221 215.349 282.123 215.349 277.508 C 215.349 273.03 218.426 270.653 224.021 270.793 L 224.021 266.597 C 216.608 266.177 209.895 269.255 209.895 277.508 C 209.895 285.62 216.608 288.837 224.021 288.417 L 224.021 288.417 Z M 356.903 300.866 C 348.61 300.866 338.953 307.93 327.117 324.036 L 337.041 302.965 L 288.644 302.965 C 293.679 320.449 282.909 342.969 271.439 342.969 C 269.062 342.969 268.082 341.15 268.082 337.793 C 268.082 327.582 274.936 313.315 289.342 311.218 L 281.93 302.405 C 270.62 302.405 262.719 308.561 258.395 316.634 C 253.461 324.991 237.704 342.554 228.497 342.689 L 248.64 302.965 L 234.092 302.965 C 234.092 302.965 207.936 341.71 191.99 343.249 C 191.99 343.249 203.46 321.567 206.118 314.574 C 209.055 307.16 205.558 300.726 197.725 300.866 C 191.551 301 184.472 304.619 173.899 318.507 L 181.22 302.965 L 166.672 302.965 C 150.867 324.505 130.865 343.528 121.772 343.528 L 158.56 266.876 L 141.775 266.876 L 125.269 301.286 C 106.386 340.591 91.979 342.829 88.902 342.829 C 83.866 342.829 87.923 334.156 97.015 317.651 C 108.485 296.67 118.276 280.445 118.276 271.772 C 118.276 264.779 114.079 261.142 107.365 261.142 C 97.993 261.142 93.938 268.415 93.938 268.415 C 101.491 270.233 106.246 273.03 88.202 304.223 C 78.272 321.567 70.299 334.576 70.299 343.668 C 70.298 350.242 73.516 353.04 79.391 353.04 C 90.793 353.04 100.86 344.529 108.318 335.529 C 102.774 351.608 110.194 353.04 114.22 353.04 C 127.527 353.04 147.972 333.013 159.863 318.167 L 146.81 347.305 L 161.358 347.305 C 171.289 324.785 185.556 308.839 191.57 308.839 C 193.949 308.839 192.689 312.196 188.913 319.469 C 184.856 327.303 179.261 337.653 179.261 341.85 C 179.261 347.025 182.199 348.844 187.094 348.844 C 199.953 348.844 212.143 337.696 224.46 321.28 C 219.65 330.096 215.209 338.493 215.209 341.71 C 215.209 346.606 218.007 348.844 222.902 348.844 C 230.987 348.844 243.456 342.256 254.802 327.917 C 254.613 329.348 254.514 330.781 254.514 332.199 C 254.514 342.13 259.969 348.844 269.761 348.844 C 287.664 348.844 298.834 332.086 298.834 315.721 C 298.834 312.53 298.616 308.892 297.938 306.461 L 320.577 306.461 L 302.212 347.305 L 316.759 347.305 C 316.759 347.305 339.418 308.559 349.77 308.559 C 354.805 308.559 348.231 317.651 339.698 334.716 C 334.243 345.626 328.088 356.537 327.948 364.51 C 327.669 373.041 332.565 376.539 338.44 376.539 C 347.531 376.539 350.469 369.964 350.469 369.964 C 350.469 369.964 342.775 369.825 342.775 362.551 C 342.775 352.061 365.295 318.91 365.295 309.539 C 365.295 303.244 361.798 300.866 356.903 300.866 L 356.903 300.866 Z M 366.693 270.933 L 366.694 266.736 C 359.421 266.317 352.567 268.695 352.567 277.508 C 352.567 285.62 359.421 288.697 366.694 288.278 L 366.693 284.081 C 362.078 284.081 358.023 282.123 358.023 277.508 C 358.023 273.03 361.099 270.793 366.693 270.933 Z M 191.85 270.793 L 195.196 279.885 L 188.141 279.885 L 191.85 270.793 L 191.85 270.793 Z M 186.372 284.221 L 196.792 284.221 L 198.285 288.278 L 203.739 288.278 L 195.488 266.876 L 188.493 266.876 L 179.401 288.278 L 184.716 288.278 L 186.372 284.221 L 186.372 284.221 Z M 73.655 380.456 L 67.963 393.089 L 67.963 393.141 L 68.105 393.141 C 106.075 384.198 226.948 373.599 308.645 372.623 L 311.024 367.727 L 102.191 367.727 C 86.105 367.727 78.831 368.846 73.655 380.456 Z" fill="rgb(242, 242, 242)" fill-rule="nonzero"/>
  </g>
</svg>